<svg width="17" height="17" viewBox="0 0 17 17" fill="none" xmlns="http://www.w3.org/2000/svg">
<g clip-path="url(#clip0)">
<path d="M11.0545 5.42938L9.97608 4.352L4.58389 9.74313C4.37153 9.95556 4.20308 10.2077 4.08818 10.4853C3.97328 10.7628 3.91416 11.0603 3.91421 11.3606C3.91426 11.661 3.97347 11.9584 4.08847 12.2359C4.20346 12.5134 4.37199 12.7655 4.58442 12.9779C4.79686 13.1903 5.04904 13.3587 5.32657 13.4736C5.6041 13.5885 5.90155 13.6476 6.20192 13.6476C6.5023 13.6475 6.79973 13.5883 7.07722 13.4733C7.35471 13.3583 7.60684 13.1898 7.8192 12.9774L14.2898 6.50781C15.0047 5.79277 15.4063 4.82301 15.4062 3.81188C15.4061 2.80074 15.0043 1.83107 14.2893 1.11616C13.5742 0.40125 12.6045 -0.000324677 11.5934 -0.000225049C10.5822 -0.00012542 9.61255 0.401641 8.89764 1.11669L2.10402 7.90925L2.08914 7.92306C0.0119531 10.0003 0.0119531 13.3663 2.08914 15.4424C4.16633 17.5185 7.53233 17.5185 9.60952 15.4424L9.62333 15.4275L9.62439 15.4286L14.2622 10.7918L13.1838 9.71444L8.54595 14.3501L8.53214 14.3639C7.05314 15.8429 4.64764 15.8429 3.16864 14.3639C2.81585 14.0104 2.53632 13.5907 2.34607 13.1288C2.15582 12.667 2.0586 12.1722 2.05998 11.6727C2.06137 11.1733 2.16132 10.679 2.35412 10.2182C2.54692 9.75746 2.82877 9.33929 3.18352 8.98769L3.18245 8.98663L9.97714 2.19406C10.8686 1.30156 12.32 1.30156 13.2125 2.19406C14.105 3.08656 14.1039 4.53688 13.2125 5.42831L6.74183 11.8979C6.59702 12.0311 6.40635 12.1032 6.20964 12.0991C6.01293 12.0951 5.8254 12.0152 5.6862 11.8761C5.54701 11.737 5.46692 11.5496 5.46267 11.3529C5.45842 11.1562 5.53033 10.9654 5.66339 10.8205L11.0556 5.42831L11.0545 5.42938Z" fill="#ADADAD"/>
</g>
<defs>
<clipPath id="clip0">
<rect width="17" height="17" fill="white"/>
</clipPath>
</defs>
</svg>
