<svg width="13" height="13" viewBox="0 0 13 13" fill="none" xmlns="http://www.w3.org/2000/svg">
<g clip-path="url(#clip0)">
<path d="M6.50022 0.8125C2.90999 0.8125 0.000220286 3.17637 0.000220286 6.09375C0.000220286 7.30234 0.505494 8.40937 1.34338 9.30059C0.965064 10.301 0.177955 11.149 0.165259 11.1592C-0.00231878 11.3369 -0.0480219 11.5959 0.0484625 11.8193C0.144947 12.0428 0.365845 12.1875 0.609595 12.1875C2.17112 12.1875 3.40256 11.535 4.14143 11.0119C4.87522 11.243 5.66741 11.375 6.50022 11.375C10.0905 11.375 13.0002 9.01113 13.0002 6.09375C13.0002 3.17637 10.0905 0.8125 6.50022 0.8125ZM6.50022 10.1562C5.82229 10.1562 5.15198 10.0521 4.5096 9.84902L3.93323 9.66621L3.43811 10.0166C3.07503 10.273 2.57737 10.56 1.97815 10.7529C2.1635 10.4457 2.34378 10.1004 2.48342 9.73223L2.75256 9.01875L2.22952 8.46523C1.76995 7.9752 1.21897 7.16523 1.21897 6.09375C1.21897 3.8543 3.58792 2.03125 6.50022 2.03125C9.41253 2.03125 11.7815 3.8543 11.7815 6.09375C11.7815 8.3332 9.41253 10.1562 6.50022 10.1562Z" fill="#4481A0"/>
</g>
<defs>
<clipPath id="clip0">
<rect width="13" height="13" fill="white"/>
</clipPath>
</defs>
</svg>
