<svg width="13" height="13" viewBox="0 0 13 13" fill="#fff" xmlns="http://www.w3.org/2000/svg">
<g clip-path="url(#clip0)">
<path d="M11.7812 2.4375C11.889 2.4375 11.9923 2.4803 12.0685 2.55649C12.1447 2.63267 12.1875 2.73601 12.1875 2.84375V10.1562C12.1875 10.264 12.1447 10.3673 12.0685 10.4435C11.9923 10.5197 11.889 10.5625 11.7812 10.5625H1.21875C1.11101 10.5625 1.00767 10.5197 0.931488 10.4435C0.855301 10.3673 0.8125 10.264 0.8125 10.1562V2.84375C0.8125 2.73601 0.855301 2.63267 0.931488 2.55649C1.00767 2.4803 1.11101 2.4375 1.21875 2.4375H11.7812ZM1.21875 1.625C0.895517 1.625 0.585524 1.7534 0.356964 1.98196C0.128404 2.21052 0 2.52052 0 2.84375L0 10.1562C0 10.4795 0.128404 10.7895 0.356964 11.018C0.585524 11.2466 0.895517 11.375 1.21875 11.375H11.7812C12.1045 11.375 12.4145 11.2466 12.643 11.018C12.8716 10.7895 13 10.4795 13 10.1562V2.84375C13 2.52052 12.8716 2.21052 12.643 1.98196C12.4145 1.7534 12.1045 1.625 11.7812 1.625H1.21875Z" fill="#515151"/>
<path d="M4.0625 6.5C4.0625 6.39226 4.1053 6.28892 4.18149 6.21274C4.25767 6.13655 4.36101 6.09375 4.46875 6.09375H10.1562C10.264 6.09375 10.3673 6.13655 10.4435 6.21274C10.5197 6.28892 10.5625 6.39226 10.5625 6.5C10.5625 6.60774 10.5197 6.71108 10.4435 6.78726C10.3673 6.86345 10.264 6.90625 10.1562 6.90625H4.46875C4.36101 6.90625 4.25767 6.86345 4.18149 6.78726C4.1053 6.71108 4.0625 6.60774 4.0625 6.5ZM4.0625 4.46875C4.0625 4.36101 4.1053 4.25767 4.18149 4.18149C4.25767 4.1053 4.36101 4.0625 4.46875 4.0625H10.1562C10.264 4.0625 10.3673 4.1053 10.4435 4.18149C10.5197 4.25767 10.5625 4.36101 10.5625 4.46875C10.5625 4.57649 10.5197 4.67983 10.4435 4.75601C10.3673 4.8322 10.264 4.875 10.1562 4.875H4.46875C4.36101 4.875 4.25767 4.8322 4.18149 4.75601C4.1053 4.67983 4.0625 4.57649 4.0625 4.46875ZM4.0625 8.53125C4.0625 8.42351 4.1053 8.32017 4.18149 8.24399C4.25767 8.1678 4.36101 8.125 4.46875 8.125H10.1562C10.264 8.125 10.3673 8.1678 10.4435 8.24399C10.5197 8.32017 10.5625 8.42351 10.5625 8.53125C10.5625 8.63899 10.5197 8.74233 10.4435 8.81851C10.3673 8.8947 10.264 8.9375 10.1562 8.9375H4.46875C4.36101 8.9375 4.25767 8.8947 4.18149 8.81851C4.1053 8.74233 4.0625 8.63899 4.0625 8.53125ZM3.25 4.46875C3.25 4.57649 3.2072 4.67983 3.13101 4.75601C3.05483 4.8322 2.95149 4.875 2.84375 4.875C2.73601 4.875 2.63267 4.8322 2.55649 4.75601C2.4803 4.67983 2.4375 4.57649 2.4375 4.46875C2.4375 4.36101 2.4803 4.25767 2.55649 4.18149C2.63267 4.1053 2.73601 4.0625 2.84375 4.0625C2.95149 4.0625 3.05483 4.1053 3.13101 4.18149C3.2072 4.25767 3.25 4.36101 3.25 4.46875V4.46875ZM3.25 6.5C3.25 6.60774 3.2072 6.71108 3.13101 6.78726C3.05483 6.86345 2.95149 6.90625 2.84375 6.90625C2.73601 6.90625 2.63267 6.86345 2.55649 6.78726C2.4803 6.71108 2.4375 6.60774 2.4375 6.5C2.4375 6.39226 2.4803 6.28892 2.55649 6.21274C2.63267 6.13655 2.73601 6.09375 2.84375 6.09375C2.95149 6.09375 3.05483 6.13655 3.13101 6.21274C3.2072 6.28892 3.25 6.39226 3.25 6.5V6.5ZM3.25 8.53125C3.25 8.63899 3.2072 8.74233 3.13101 8.81851C3.05483 8.8947 2.95149 8.9375 2.84375 8.9375C2.73601 8.9375 2.63267 8.8947 2.55649 8.81851C2.4803 8.74233 2.4375 8.63899 2.4375 8.53125C2.4375 8.42351 2.4803 8.32017 2.55649 8.24399C2.63267 8.1678 2.73601 8.125 2.84375 8.125C2.95149 8.125 3.05483 8.1678 3.13101 8.24399C3.2072 8.32017 3.25 8.42351 3.25 8.53125V8.53125Z" fill="#515151"/>
</g>
<defs>
<clipPath id="clip0">
<rect width="13" height="13" fill="white"/>
</clipPath>
</defs>
</svg>
