<svg width="13" height="13" viewBox="0 0 13 13" fill="none" xmlns="http://www.w3.org/2000/svg">
<path d="M1.13435 6.00519C1.12786 5.9304 1.13698 5.85508 1.16115 5.784C1.18531 5.71292 1.22398 5.64764 1.27471 5.59231C1.32543 5.53697 1.38711 5.49278 1.45582 5.46254C1.52454 5.43231 1.59878 5.41668 1.67385 5.41667H2.70817C2.85183 5.41667 2.9896 5.47373 3.09118 5.57532C3.19277 5.6769 3.24983 5.81467 3.24983 5.95833V11.1042C3.24983 11.2478 3.19277 11.3856 3.09118 11.4872C2.9896 11.5888 2.85183 11.6458 2.70817 11.6458H2.12154C1.98597 11.6459 1.85532 11.5951 1.75538 11.5034C1.65545 11.4118 1.5935 11.2861 1.58177 11.151L1.13435 6.00519V6.00519Z" fill="#D0172D" stroke="#D0172D" stroke-linecap="round" stroke-linejoin="round"/>
<path d="M4.875 5.78906C4.875 5.56265 5.01583 5.36006 5.22031 5.26365C5.66692 5.05294 6.42769 4.62962 6.77083 4.05735C7.2131 3.3196 7.29652 1.98683 7.31006 1.6816C7.31196 1.63881 7.31087 1.59602 7.31656 1.55377C7.38996 1.02483 8.41073 1.6426 8.80208 2.29585C9.01469 2.6501 9.04177 3.11567 9.01956 3.4794C8.99546 3.86831 8.88144 4.24396 8.76958 4.61717L8.53125 5.4126H11.4717C11.5554 5.4126 11.6379 5.43199 11.7129 5.46924C11.7878 5.5065 11.8531 5.56062 11.9036 5.62734C11.9541 5.69407 11.9885 5.7716 12.004 5.85383C12.0195 5.93607 12.0158 6.02079 11.993 6.10133L10.5387 11.2515C10.5066 11.3651 10.4382 11.4651 10.3441 11.5363C10.2499 11.6074 10.1351 11.6459 10.017 11.6458H5.41667C5.27301 11.6458 5.13523 11.5888 5.03365 11.4872C4.93207 11.3856 4.875 11.2478 4.875 11.1042V5.78906Z" fill="#D0172D" stroke="#D0172D" stroke-linecap="round" stroke-linejoin="round"/>
</svg>
