<svg width="439" height="106" viewBox="0 0 439 106" fill="none" xmlns="http://www.w3.org/2000/svg">
<circle cx="112" cy="55" r="43" fill="#323C63"/>
<circle cx="108.728" cy="51.7283" r="39.7283" fill="#3C4875"/>
<circle cx="103.12" cy="45.1848" r="21.0326" fill="white"/>
<path d="M7.7 94.3V11.4H28.9V76.4L61.6 72.4V94.3H7.7ZM186.713 63.9V92.2L165.513 96.4V11.4H224.913V30.1H186.713V45.2L218.813 41.6V60.3L186.713 63.9ZM255.56 63.9V92.2L234.36 96.4V11.4H293.76V30.1H255.56V45.2L287.66 41.6V60.3L255.56 63.9ZM303.208 94.3V11.4H324.408V76.4L357.108 72.4V94.3H303.208ZM366.489 94.3V11.4H425.389V30.1H387.689V43.7L421.289 40.1V58.8L387.689 62.4V76.7L426.389 72.3V94.3H366.489Z" fill="#3C4875"/>
</svg>
