<svg width="94" height="94" viewBox="0 0 94 94" fill="none" xmlns="http://www.w3.org/2000/svg">
<circle cx="47" cy="47" r="47" fill="#C4C4C4"/>
<path d="M47 72.92C38 72.92 30.044 68.312 25.4 61.4C25.508 54.2 39.8 50.24 47 50.24C54.2 50.24 68.492 54.2 68.6 61.4C66.22 64.9439 63.0051 67.8481 59.2384 69.857C55.4717 71.8659 51.2689 72.9178 47 72.92ZM47 21.8C49.8643 21.8 52.6114 22.9379 54.6368 24.9632C56.6621 26.9886 57.8 29.7357 57.8 32.6C57.8 35.4643 56.6621 38.2114 54.6368 40.2368C52.6114 42.2621 49.8643 43.4 47 43.4C44.1357 43.4 41.3886 42.2621 39.3632 40.2368C37.3379 38.2114 36.2 35.4643 36.2 32.6C36.2 29.7357 37.3379 26.9886 39.3632 24.9632C41.3886 22.9379 44.1357 21.8 47 21.8ZM47 11C42.2724 11 37.5911 11.9312 33.2234 13.7403C28.8557 15.5495 24.8871 18.2012 21.5442 21.5442C14.7928 28.2955 11 37.4522 11 47C11 56.5478 14.7928 65.7045 21.5442 72.4558C24.8871 75.7988 28.8557 78.4505 33.2234 80.2597C37.5911 82.0688 42.2724 83 47 83C56.5478 83 65.7045 79.2072 72.4558 72.4558C79.2072 65.7045 83 56.5478 83 47C83 27.092 66.8 11 47 11Z" fill="#515151"/>
</svg>
