<svg width="18" height="18" viewBox="0 0 18 18" fill="none" xmlns="http://www.w3.org/2000/svg">
<path d="M16.3457 15.1535L13.4856 12.2933C14.5399 10.9355 15.0372 9.22701 14.8761 7.51552C14.715 5.80404 13.9077 4.21827 12.6186 3.08106C11.3295 1.94385 9.65537 1.34069 7.93716 1.39438C6.21895 1.44807 4.58579 2.15458 3.37016 3.37006C2.15454 4.58554 1.44784 6.21862 1.39395 7.93682C1.34006 9.65503 1.94301 11.3292 3.08007 12.6185C4.21713 13.9077 5.8028 14.7152 7.51427 14.8765C9.22574 15.0377 10.9343 14.5407 12.2922 13.4865L15.1525 16.3467C15.2306 16.4261 15.3236 16.4892 15.4263 16.5325C15.5289 16.5757 15.6391 16.5982 15.7505 16.5987C15.8619 16.5991 15.9722 16.5775 16.0752 16.5351C16.1782 16.4927 16.2718 16.4303 16.3505 16.3516C16.4293 16.2728 16.4917 16.1792 16.5341 16.0762C16.5765 15.9732 16.5981 15.8629 16.5977 15.7515C16.5972 15.6401 16.5747 15.5299 16.5315 15.4273C16.4882 15.3247 16.4251 15.2316 16.3457 15.1535H16.3457ZM3.09323 8.15626C3.09323 7.15499 3.39014 6.17621 3.94642 5.34368C4.50269 4.51116 5.29335 3.86228 6.2184 3.47912C7.14345 3.09595 8.16135 2.99569 9.14338 3.19103C10.1254 3.38637 11.0275 3.86852 11.7355 4.57653C12.4435 5.28453 12.9256 6.18658 13.121 7.16861C13.3163 8.15064 13.216 9.16854 12.8329 10.0936C12.4497 11.0186 11.8008 11.8093 10.9683 12.3656C10.1358 12.9218 9.157 13.2188 8.15573 13.2188C6.81354 13.2172 5.52674 12.6834 4.57767 11.7343C3.62859 10.7852 3.09474 9.49845 3.09323 8.15626Z" fill="#515151"/>
</svg>
