<svg width="13" height="13" viewBox="0 0 13 13" fill="none" xmlns="http://www.w3.org/2000/svg">
<g clip-path="url(#clip0)">
<path d="M8.93723 2.03119C8.93717 1.55461 9.10469 1.09317 9.41048 0.727626C9.71628 0.362079 10.1409 0.115694 10.61 0.0315787C11.0791 -0.0525364 11.5628 0.0309745 11.9766 0.267501C12.3903 0.504027 12.7077 0.878506 12.8733 1.32542C13.0388 1.77234 13.0419 2.26323 12.8821 2.71221C12.7222 3.16119 12.4096 3.53967 11.9989 3.78143C11.5882 4.0232 11.1055 4.11285 10.6354 4.0347C10.1653 3.95655 9.73758 3.71558 9.42716 3.35394L3.96879 5.88894C4.09427 6.28661 4.09427 6.71327 3.96879 7.11094L9.42716 9.64594C9.75529 9.26434 10.2134 9.01813 10.7127 8.95503C11.212 8.89194 11.717 9.01645 12.1297 9.30444C12.5424 9.59243 12.8335 10.0234 12.9466 10.5138C13.0597 11.0042 12.9868 11.5191 12.7418 11.9588C12.4969 12.3984 12.0975 12.7315 11.621 12.8935C11.1445 13.0554 10.6248 13.0347 10.1627 12.8353C9.7006 12.636 9.32896 12.2722 9.11981 11.8144C8.91066 11.3566 8.87889 10.8375 9.03066 10.3577L3.57229 7.82269C3.30208 8.13759 2.94191 8.36219 2.54023 8.46626C2.13856 8.57034 1.71464 8.5489 1.32551 8.40483C0.936386 8.26076 0.600714 8.00098 0.363652 7.66043C0.12659 7.31987 -0.000488281 6.91488 -0.000488281 6.49994C-0.000488281 6.085 0.12659 5.68001 0.363652 5.33946C0.600714 4.9989 0.936386 4.73912 1.32551 4.59505C1.71464 4.45099 2.13856 4.42955 2.54023 4.53362C2.94191 4.6377 3.30208 4.86229 3.57229 5.17719L9.03066 2.64219C8.96853 2.44448 8.93702 2.23843 8.93723 2.03119V2.03119Z" fill="#515151"/>
</g>
<defs>
<clipPath id="clip0">
<rect width="13" height="13" fill="white"/>
</clipPath>
</defs>
</svg>
